<?xml version="1.0" encoding="UTF-8"?>
<svg xmlns="http://www.w3.org/2000/svg" xmlns:xlink="http://www.w3.org/1999/xlink"
     width="1000" height="1000" viewBox="0 0 500 500">
<defs>
</defs>
<circle cx="250" cy="250" r="250" fill="yellow" />
<circle cx="250" cy="250" r="245" fill="black" />
<circle cx="250" cy="250" r="240" fill="yellow" />
<circle cx="250" cy="250" r="225" fill="blue" />
<circle cx="250" cy="250" r="215.5" fill="forestgreen" />
<circle cx="250" cy="250" r="209.25" fill="blue" />
<circle cx="250" cy="250" r="200" fill="yellow" />
<circle cx="250" cy="250" r="175" fill="red" />
<circle cx="250" cy="250" r="150" fill="yellow" />
<circle cx="250" cy="250" r="125" fill="#6b00ff" />
<circle cx="250" cy="250" r="100" fill="yellow" />
<circle cx="250" cy="250" r="75" fill="black" />
<circle cx="250" cy="250" r="50" fill="yellow" />
<rect x="76" y="75" width="30" height="30" rx="1" ry="1" stroke="black" fill="#6b00ff" />
<rect x="76" y="115" width="30" height="30" rx="1" ry="1" stroke="black" fill="orange" />
<rect x="76" y="155" width="30" height="30" rx="1" ry="1" stroke="black" fill="orange" />
<rect x="76" y="195" width="30" height="30" rx="1" ry="1" stroke="black" fill="orange" />
<rect x="76" y="235" width="30" height="30" rx="1" ry="1" stroke="black" fill="orange" />
<rect x="76" y="275" width="30" height="30" rx="1" ry="1" stroke="black" fill="orange" />
<rect x="76" y="315" width="30" height="30" rx="1" ry="1" stroke="black" fill="orange" />
<rect x="76" y="355" width="30" height="30" rx="1" ry="1" stroke="black" fill="orange" />
<rect x="76" y="395" width="30" height="30" rx="1" ry="1" stroke="black" fill="#6b00ff" />
<rect x="116" y="75" width="30" height="30" rx="1" ry="1" stroke="black" fill="orange" />
<rect x="116" y="115" width="30" height="30" rx="1" ry="1" stroke="black" fill="#6b00ff" />
<rect x="116" y="155" width="30" height="30" rx="1" ry="1" stroke="black" fill="forestgreen" />
<rect x="116" y="195" width="30" height="30" rx="1" ry="1" stroke="black" fill="forestgreen" />
<rect x="116" y="235" width="30" height="30" rx="1" ry="1" stroke="black" fill="forestgreen" />
<rect x="116" y="275" width="30" height="30" rx="1" ry="1" stroke="black" fill="forestgreen" />
<rect x="116" y="315" width="30" height="30" rx="1" ry="1" stroke="black" fill="forestgreen" />
<rect x="116" y="355" width="30" height="30" rx="1" ry="1" stroke="black" fill="#6b00ff" />
<rect x="116" y="395" width="30" height="30" rx="1" ry="1" stroke="black" fill="orange" />
<rect x="156" y="75" width="30" height="30" rx="1" ry="1" stroke="black" fill="orange" />
<rect x="156" y="115" width="30" height="30" rx="1" ry="1" stroke="black" fill="forestgreen" />
<rect x="156" y="155" width="30" height="30" rx="1" ry="1" stroke="black" fill="#6b00ff" />
<rect x="156" y="195" width="30" height="30" rx="1" ry="1" stroke="black" fill="cyan" />
<rect x="156" y="235" width="30" height="30" rx="1" ry="1" stroke="black" fill="cyan" />
<rect x="156" y="275" width="30" height="30" rx="1" ry="1" stroke="black" fill="cyan" />
<rect x="156" y="315" width="30" height="30" rx="1" ry="1" stroke="black" fill="#6b00ff" />
<rect x="156" y="355" width="30" height="30" rx="1" ry="1" stroke="black" fill="forestgreen" />
<rect x="156" y="395" width="30" height="30" rx="1" ry="1" stroke="black" fill="orange" />
<rect x="196" y="75" width="30" height="30" rx="1" ry="1" stroke="black" fill="orange" />
<rect x="196" y="115" width="30" height="30" rx="1" ry="1" stroke="black" fill="forestgreen" />
<rect x="196" y="155" width="30" height="30" rx="1" ry="1" stroke="black" fill="cyan" />
<rect x="196" y="195" width="30" height="30" rx="1" ry="1" stroke="black" fill="#6b00ff" />
<rect x="196" y="235" width="30" height="30" rx="1" ry="1" stroke="black" fill="red" />
<rect x="196" y="275" width="30" height="30" rx="1" ry="1" stroke="black" fill="#6b00ff" />
<rect x="196" y="315" width="30" height="30" rx="1" ry="1" stroke="black" fill="cyan" />
<rect x="196" y="355" width="30" height="30" rx="1" ry="1" stroke="black" fill="forestgreen" />
<rect x="196" y="395" width="30" height="30" rx="1" ry="1" stroke="black" fill="orange" />
<rect x="236" y="75" width="30" height="30" rx="1" ry="1" stroke="black" fill="orange" />
<rect x="236" y="115" width="30" height="30" rx="1" ry="1" stroke="black" fill="forestgreen" />
<rect x="236" y="155" width="30" height="30" rx="1" ry="1" stroke="black" fill="cyan" />
<rect x="236" y="195" width="30" height="30" rx="1" ry="1" stroke="black" fill="red" />
<rect x="236" y="235" width="30" height="30" rx="1" ry="1" stroke="black" fill="black" />
<rect x="236" y="275" width="30" height="30" rx="1" ry="1" stroke="black" fill="red" />
<rect x="236" y="315" width="30" height="30" rx="1" ry="1" stroke="black" fill="cyan" />
<rect x="236" y="355" width="30" height="30" rx="1" ry="1" stroke="black" fill="forestgreen" />
<rect x="236" y="395" width="30" height="30" rx="1" ry="1" stroke="black" fill="orange" />
<rect x="276" y="75" width="30" height="30" rx="1" ry="1" stroke="black" fill="orange" />
<rect x="276" y="115" width="30" height="30" rx="1" ry="1" stroke="black" fill="forestgreen" />
<rect x="276" y="155" width="30" height="30" rx="1" ry="1" stroke="black" fill="cyan" />
<rect x="276" y="195" width="30" height="30" rx="1" ry="1" stroke="black" fill="#6b00ff" />
<rect x="276" y="235" width="30" height="30" rx="1" ry="1" stroke="black" fill="red" />
<rect x="276" y="275" width="30" height="30" rx="1" ry="1" stroke="black" fill="#6b00ff" />
<rect x="276" y="315" width="30" height="30" rx="1" ry="1" stroke="black" fill="cyan" />
<rect x="276" y="355" width="30" height="30" rx="1" ry="1" stroke="black" fill="forestgreen" />
<rect x="276" y="395" width="30" height="30" rx="1" ry="1" stroke="black" fill="orange" />
<rect x="316" y="75" width="30" height="30" rx="1" ry="1" stroke="black" fill="orange" />
<rect x="316" y="115" width="30" height="30" rx="1" ry="1" stroke="black" fill="forestgreen" />
<rect x="316" y="155" width="30" height="30" rx="1" ry="1" stroke="black" fill="#6b00ff" />
<rect x="316" y="195" width="30" height="30" rx="1" ry="1" stroke="black" fill="cyan" />
<rect x="316" y="235" width="30" height="30" rx="1" ry="1" stroke="black" fill="cyan" />
<rect x="316" y="275" width="30" height="30" rx="1" ry="1" stroke="black" fill="cyan" />
<rect x="316" y="315" width="30" height="30" rx="1" ry="1" stroke="black" fill="#6b00ff" />
<rect x="316" y="355" width="30" height="30" rx="1" ry="1" stroke="black" fill="forestgreen" />
<rect x="316" y="395" width="30" height="30" rx="1" ry="1" stroke="black" fill="orange" />
<rect x="356" y="75" width="30" height="30" rx="1" ry="1" stroke="black" fill="orange" />
<rect x="356" y="115" width="30" height="30" rx="1" ry="1" stroke="black" fill="#6b00ff" />
<rect x="356" y="155" width="30" height="30" rx="1" ry="1" stroke="black" fill="forestgreen" />
<rect x="356" y="195" width="30" height="30" rx="1" ry="1" stroke="black" fill="forestgreen" />
<rect x="356" y="235" width="30" height="30" rx="1" ry="1" stroke="black" fill="forestgreen" />
<rect x="356" y="275" width="30" height="30" rx="1" ry="1" stroke="black" fill="forestgreen" />
<rect x="356" y="315" width="30" height="30" rx="1" ry="1" stroke="black" fill="forestgreen" />
<rect x="356" y="355" width="30" height="30" rx="1" ry="1" stroke="black" fill="#6b00ff" />
<rect x="356" y="395" width="30" height="30" rx="1" ry="1" stroke="black" fill="orange" />
<rect x="396" y="75" width="30" height="30" rx="1" ry="1" stroke="black" fill="#6b00ff" />
<rect x="396" y="115" width="30" height="30" rx="1" ry="1" stroke="black" fill="orange" />
<rect x="396" y="155" width="30" height="30" rx="1" ry="1" stroke="black" fill="orange" />
<rect x="396" y="195" width="30" height="30" rx="1" ry="1" stroke="black" fill="orange" />
<rect x="396" y="235" width="30" height="30" rx="1" ry="1" stroke="black" fill="orange" />
<rect x="396" y="275" width="30" height="30" rx="1" ry="1" stroke="black" fill="orange" />
<rect x="396" y="315" width="30" height="30" rx="1" ry="1" stroke="black" fill="orange" />
<rect x="396" y="355" width="30" height="30" rx="1" ry="1" stroke="black" fill="orange" />
<rect x="396" y="395" width="30" height="30" rx="1" ry="1" stroke="black" fill="#6b00ff" />
<text x="121" y="100" font-size="5">Krittika</text>
<text x="161" y="100" font-size="5">Rohini</text>
<text x="201" y="100" font-size="5">Mrigashira</text>
<text x="241" y="100" font-size="5">Ardra</text>
<text x="281" y="100" font-size="5">Punarvasu</text>
<text x="321" y="100" font-size="5">Pushya</text>
<text x="361" y="100" font-size="5">Ashlesha</text>
<text x="401" y="140" font-size="5">Magha</text>
<text x="401" y="180" font-size="5">P. Phalguni</text>
<text x="401" y="220" font-size="5">U. Phalguni</text>
<text x="401" y="260" font-size="5">Hasta</text>
<text x="401" y="300" font-size="5">Chitra</text>
<text x="401" y="340" font-size="5">Svati</text>
<text x="401" y="380" font-size="5">Vishakha</text>
<text x="361" y="420" font-size="5">Anuradha</text>
<text x="321" y="420" font-size="5">Jyeshtha</text>
<text x="281" y="420" font-size="5">Mula</text>
<text x="241" y="420" font-size="5">P. Ashadha</text>
<text x="201" y="420" font-size="5">U. Ashadha</text>
<text x="161" y="420" font-size="5">Abhijit</text>
<text x="121" y="420" font-size="5">Shravana</text>
<text x="81" y="380" font-size="5">Danishtha</text>
<text x="81" y="340" font-size="5">Shatabhisha</text>
<text x="81" y="300" font-size="5">P. Bhadrapada</text>
<text x="81" y="260" font-size="5">U. Bhadrapada</text>
<text x="81" y="220" font-size="5">Revati</text>
<text x="81" y="180" font-size="5">Ashvini</text>
<text x="81" y="140" font-size="5">Bharani</text>
<text x="81" y="97" font-size="20">अ</text>
<text x="399" y="97" font-size="20">आ</text>
<text x="404" y="417" font-size="20">इ</text>
<text x="84" y="419" font-size="20">ई</text>
<text x="124" y="137" font-size="20">उ</text>
<text x="164" y="137" font-size="20">अ</text>
<text x="204" y="137" font-size="20">व</text>
<text x="244" y="137" font-size="20">क</text>
<text x="284" y="137" font-size="20">ह</text>
<text x="324" y="137" font-size="20">ड</text>
<text x="364" y="137" font-size="20">ऊ</text>
<text x="364" y="177" font-size="20">म</text>
<text x="364" y="217" font-size="20">ट</text>
<text x="364" y="257" font-size="20">प</text>
<text x="364" y="297" font-size="20">र</text>
<text x="364" y="337" font-size="20">त</text>
<text x="364" y="377" font-size="20">ऋ</text>
<text x="324" y="377" font-size="20">न</text>
<text x="284" y="377" font-size="20">य</text>
<text x="244" y="377" font-size="20">भ</text>
<text x="204" y="377" font-size="20">ज</text>
<text x="164" y="377" font-size="20">ख</text>
<text x="124" y="377" font-size="20">ॠ</text>
<text x="124" y="337" font-size="20">ग</text>
<text x="124" y="297" font-size="20">स</text>
<text x="124" y="257" font-size="20">द</text>
<text x="124" y="217" font-size="20">च</text>
<text x="124" y="177" font-size="20">ल</text>
<text x="163" y="177" font-size="20">ऌ</text>
<text x="323" y="177" font-size="20">ॡ</text>
<text x="324" y="336" font-size="20">ए</text>
<text x="164" y="338" font-size="20">ऐ</text>
<text x="201" y="217" font-size="20">ओ</text>
<text x="279" y="217" font-size="20">औ</text>
<text x="284" y="297" font-size="20">अं</text>
<text x="201" y="299" font-size="20">अः</text>
<text x="201" y="180" font-size="5">Aryama</text>
<text x="245" y="200" font-size="5">nanda</text>
<text x="243" y="215" font-size="5">Ravivara</text>
<text x="239" y="220" font-size="5">Mangalavara</text>
<text x="284" y="240" font-size="5">bhadra</text>
<text x="282" y="255" font-size="5">Somavara</text>
<text x="281" y="260" font-size="5">Budhavara</text>
<text x="247" y="280" font-size="5">jaya</text>
<text x="243" y="300" font-size="5">Guruvara</text>
<text x="207" y="240" font-size="5">rikta</text>
<text x="202" y="260" font-size="5">Shukravara</text>
<text x="245" y="240" font-size="5" fill="white">purna</text>
<text x="243" y="260" font-size="5" fill="white">Shanivara</text>
<text x="241" y="180" font-size="5">Mitra</text>
<text x="245" y="200" font-size="5">nanda</text>
<text x="243" y="215" font-size="5">Ravivara</text>
<text x="239" y="220" font-size="5">Mangalavara</text>
<text x="284" y="240" font-size="5">bhadra</text>
<text x="282" y="255" font-size="5">Somavara</text>
<text x="281" y="260" font-size="5">Budhavara</text>
<text x="247" y="280" font-size="5">jaya</text>
<text x="243" y="300" font-size="5">Guruvara</text>
<text x="207" y="240" font-size="5">rikta</text>
<text x="202" y="260" font-size="5">Shukravara</text>
<text x="245" y="240" font-size="5" fill="white">purna</text>
<text x="243" y="260" font-size="5" fill="white">Shanivara</text>
<text x="281" y="180" font-size="5">Varuna</text>
<text x="245" y="200" font-size="5">nanda</text>
<text x="243" y="215" font-size="5">Ravivara</text>
<text x="239" y="220" font-size="5">Mangalavara</text>
<text x="284" y="240" font-size="5">bhadra</text>
<text x="282" y="255" font-size="5">Somavara</text>
<text x="281" y="260" font-size="5">Budhavara</text>
<text x="247" y="280" font-size="5">jaya</text>
<text x="243" y="300" font-size="5">Guruvara</text>
<text x="207" y="240" font-size="5">rikta</text>
<text x="202" y="260" font-size="5">Shukravara</text>
<text x="245" y="240" font-size="5" fill="white">purna</text>
<text x="243" y="260" font-size="5" fill="white">Shanivara</text>
<text x="321" y="220" font-size="5">Indra</text>
<text x="245" y="200" font-size="5">nanda</text>
<text x="243" y="215" font-size="5">Ravivara</text>
<text x="239" y="220" font-size="5">Mangalavara</text>
<text x="284" y="240" font-size="5">bhadra</text>
<text x="282" y="255" font-size="5">Somavara</text>
<text x="281" y="260" font-size="5">Budhavara</text>
<text x="247" y="280" font-size="5">jaya</text>
<text x="243" y="300" font-size="5">Guruvara</text>
<text x="207" y="240" font-size="5">rikta</text>
<text x="202" y="260" font-size="5">Shukravara</text>
<text x="245" y="240" font-size="5" fill="white">purna</text>
<text x="243" y="260" font-size="5" fill="white">Shanivara</text>
<text x="321" y="260" font-size="5">Vivasvan</text>
<text x="245" y="200" font-size="5">nanda</text>
<text x="243" y="215" font-size="5">Ravivara</text>
<text x="239" y="220" font-size="5">Mangalavara</text>
<text x="284" y="240" font-size="5">bhadra</text>
<text x="282" y="255" font-size="5">Somavara</text>
<text x="281" y="260" font-size="5">Budhavara</text>
<text x="247" y="280" font-size="5">jaya</text>
<text x="243" y="300" font-size="5">Guruvara</text>
<text x="207" y="240" font-size="5">rikta</text>
<text x="202" y="260" font-size="5">Shukravara</text>
<text x="245" y="240" font-size="5" fill="white">purna</text>
<text x="243" y="260" font-size="5" fill="white">Shanivara</text>
<text x="321" y="300" font-size="5">Tvashta</text>
<text x="245" y="200" font-size="5">nanda</text>
<text x="243" y="215" font-size="5">Ravivara</text>
<text x="239" y="220" font-size="5">Mangalavara</text>
<text x="284" y="240" font-size="5">bhadra</text>
<text x="282" y="255" font-size="5">Somavara</text>
<text x="281" y="260" font-size="5">Budhavara</text>
<text x="247" y="280" font-size="5">jaya</text>
<text x="243" y="300" font-size="5">Guruvara</text>
<text x="207" y="240" font-size="5">rikta</text>
<text x="202" y="260" font-size="5">Shukravara</text>
<text x="245" y="240" font-size="5" fill="white">purna</text>
<text x="243" y="260" font-size="5" fill="white">Shanivara</text>
<text x="281" y="340" font-size="5">Vishnu</text>
<text x="245" y="200" font-size="5">nanda</text>
<text x="243" y="215" font-size="5">Ravivara</text>
<text x="239" y="220" font-size="5">Mangalavara</text>
<text x="284" y="240" font-size="5">bhadra</text>
<text x="282" y="255" font-size="5">Somavara</text>
<text x="281" y="260" font-size="5">Budhavara</text>
<text x="247" y="280" font-size="5">jaya</text>
<text x="243" y="300" font-size="5">Guruvara</text>
<text x="207" y="240" font-size="5">rikta</text>
<text x="202" y="260" font-size="5">Shukravara</text>
<text x="245" y="240" font-size="5" fill="white">purna</text>
<text x="243" y="260" font-size="5" fill="white">Shanivara</text>
<text x="241" y="340" font-size="5">Amshu</text>
<text x="245" y="200" font-size="5">nanda</text>
<text x="243" y="215" font-size="5">Ravivara</text>
<text x="239" y="220" font-size="5">Mangalavara</text>
<text x="284" y="240" font-size="5">bhadra</text>
<text x="282" y="255" font-size="5">Somavara</text>
<text x="281" y="260" font-size="5">Budhavara</text>
<text x="247" y="280" font-size="5">jaya</text>
<text x="243" y="300" font-size="5">Guruvara</text>
<text x="207" y="240" font-size="5">rikta</text>
<text x="202" y="260" font-size="5">Shukravara</text>
<text x="245" y="240" font-size="5" fill="white">purna</text>
<text x="243" y="260" font-size="5" fill="white">Shanivara</text>
<text x="201" y="340" font-size="5">Bhaga</text>
<text x="245" y="200" font-size="5">nanda</text>
<text x="243" y="215" font-size="5">Ravivara</text>
<text x="239" y="220" font-size="5">Mangalavara</text>
<text x="284" y="240" font-size="5">bhadra</text>
<text x="282" y="255" font-size="5">Somavara</text>
<text x="281" y="260" font-size="5">Budhavara</text>
<text x="247" y="280" font-size="5">jaya</text>
<text x="243" y="300" font-size="5">Guruvara</text>
<text x="207" y="240" font-size="5">rikta</text>
<text x="202" y="260" font-size="5">Shukravara</text>
<text x="245" y="240" font-size="5" fill="white">purna</text>
<text x="243" y="260" font-size="5" fill="white">Shanivara</text>
<text x="161" y="300" font-size="5">Pusha</text>
<text x="245" y="200" font-size="5">nanda</text>
<text x="243" y="215" font-size="5">Ravivara</text>
<text x="239" y="220" font-size="5">Mangalavara</text>
<text x="284" y="240" font-size="5">bhadra</text>
<text x="282" y="255" font-size="5">Somavara</text>
<text x="281" y="260" font-size="5">Budhavara</text>
<text x="247" y="280" font-size="5">jaya</text>
<text x="243" y="300" font-size="5">Guruvara</text>
<text x="207" y="240" font-size="5">rikta</text>
<text x="202" y="260" font-size="5">Shukravara</text>
<text x="245" y="240" font-size="5" fill="white">purna</text>
<text x="243" y="260" font-size="5" fill="white">Shanivara</text>
<text x="161" y="260" font-size="5">Parjanya</text>
<text x="245" y="200" font-size="5">nanda</text>
<text x="243" y="215" font-size="5">Ravivara</text>
<text x="239" y="220" font-size="5">Mangalavara</text>
<text x="284" y="240" font-size="5">bhadra</text>
<text x="282" y="255" font-size="5">Somavara</text>
<text x="281" y="260" font-size="5">Budhavara</text>
<text x="247" y="280" font-size="5">jaya</text>
<text x="243" y="300" font-size="5">Guruvara</text>
<text x="207" y="240" font-size="5">rikta</text>
<text x="202" y="260" font-size="5">Shukravara</text>
<text x="245" y="240" font-size="5" fill="white">purna</text>
<text x="243" y="260" font-size="5" fill="white">Shanivara</text>
<text x="161" y="220" font-size="5">Dhata</text>
<text x="245" y="200" font-size="5">nanda</text>
<text x="243" y="215" font-size="5">Ravivara</text>
<text x="239" y="220" font-size="5">Mangalavara</text>
<text x="284" y="240" font-size="5">bhadra</text>
<text x="282" y="255" font-size="5">Somavara</text>
<text x="281" y="260" font-size="5">Budhavara</text>
<text x="247" y="280" font-size="5">jaya</text>
<text x="243" y="300" font-size="5">Guruvara</text>
<text x="207" y="240" font-size="5">rikta</text>
<text x="202" y="260" font-size="5">Shukravara</text>
<text x="245" y="240" font-size="5" fill="white">purna</text>
<text x="243" y="260" font-size="5" fill="white">Shanivara</text>
</svg>