<?xml version="1.0" encoding="UTF-8"?>
<svg xmlns="http://www.w3.org/2000/svg" xmlns:xlink="http://www.w3.org/1999/xlink"
     width="1000" height="1000" viewBox="0 0 500 500">
<defs>
</defs>
<circle cx="250" cy="250" r="250" fill="yellow" />
<circle cx="250" cy="250" r="245" fill="black" />
<circle cx="250" cy="250" r="240" fill="yellow" />
<circle cx="250" cy="250" r="225" fill="blue" />
<circle cx="250" cy="250" r="200" fill="yellow" />
<circle cx="250" cy="250" r="175" fill="red" />
<circle cx="250" cy="250" r="150" fill="yellow" />
<circle cx="250" cy="250" r="125" fill="purple" />
<circle cx="250" cy="250" r="100" fill="yellow" />
<circle cx="250" cy="250" r="75" fill="black" />
<circle cx="250" cy="250" r="50" fill="yellow" />
<rect x="76" y="75" width="30" height="30" rx="1" ry="1" stroke="black" fill="#6b00ff" />
<rect x="76" y="115" width="30" height="30" rx="1" ry="1" stroke="black" fill="orange" />
<rect x="76" y="155" width="30" height="30" rx="1" ry="1" stroke="black" fill="orange" />
<rect x="76" y="195" width="30" height="30" rx="1" ry="1" stroke="black" fill="orange" />
<rect x="76" y="235" width="30" height="30" rx="1" ry="1" stroke="black" fill="orange" />
<rect x="76" y="275" width="30" height="30" rx="1" ry="1" stroke="black" fill="orange" />
<rect x="76" y="315" width="30" height="30" rx="1" ry="1" stroke="black" fill="orange" />
<rect x="76" y="355" width="30" height="30" rx="1" ry="1" stroke="black" fill="orange" />
<rect x="76" y="395" width="30" height="30" rx="1" ry="1" stroke="black" fill="#6b00ff" />
<rect x="116" y="75" width="30" height="30" rx="1" ry="1" stroke="black" fill="orange" />
<rect x="116" y="115" width="30" height="30" rx="1" ry="1" stroke="black" fill="#6b00ff" />
<rect x="116" y="155" width="30" height="30" rx="1" ry="1" stroke="black" fill="forestgreen" />
<rect x="116" y="195" width="30" height="30" rx="1" ry="1" stroke="black" fill="forestgreen" />
<rect x="116" y="235" width="30" height="30" rx="1" ry="1" stroke="black" fill="forestgreen" />
<rect x="116" y="275" width="30" height="30" rx="1" ry="1" stroke="black" fill="forestgreen" />
<rect x="116" y="315" width="30" height="30" rx="1" ry="1" stroke="black" fill="forestgreen" />
<rect x="116" y="355" width="30" height="30" rx="1" ry="1" stroke="black" fill="#6b00ff" />
<rect x="116" y="395" width="30" height="30" rx="1" ry="1" stroke="black" fill="orange" />
<rect x="156" y="75" width="30" height="30" rx="1" ry="1" stroke="black" fill="orange" />
<rect x="156" y="115" width="30" height="30" rx="1" ry="1" stroke="black" fill="forestgreen" />
<rect x="156" y="155" width="30" height="30" rx="1" ry="1" stroke="black" fill="#6b00ff" />
<rect x="156" y="195" width="30" height="30" rx="1" ry="1" stroke="black" fill="cyan" />
<rect x="156" y="235" width="30" height="30" rx="1" ry="1" stroke="black" fill="cyan" />
<rect x="156" y="275" width="30" height="30" rx="1" ry="1" stroke="black" fill="cyan" />
<rect x="156" y="315" width="30" height="30" rx="1" ry="1" stroke="black" fill="#6b00ff" />
<rect x="156" y="355" width="30" height="30" rx="1" ry="1" stroke="black" fill="forestgreen" />
<rect x="156" y="395" width="30" height="30" rx="1" ry="1" stroke="black" fill="orange" />
<rect x="196" y="75" width="30" height="30" rx="1" ry="1" stroke="black" fill="orange" />
<rect x="196" y="115" width="30" height="30" rx="1" ry="1" stroke="black" fill="forestgreen" />
<rect x="196" y="155" width="30" height="30" rx="1" ry="1" stroke="black" fill="cyan" />
<rect x="196" y="195" width="30" height="30" rx="1" ry="1" stroke="black" fill="#6b00ff" />
<rect x="196" y="235" width="30" height="30" rx="1" ry="1" stroke="black" fill="red" />
<rect x="196" y="275" width="30" height="30" rx="1" ry="1" stroke="black" fill="#6b00ff" />
<rect x="196" y="315" width="30" height="30" rx="1" ry="1" stroke="black" fill="cyan" />
<rect x="196" y="355" width="30" height="30" rx="1" ry="1" stroke="black" fill="forestgreen" />
<rect x="196" y="395" width="30" height="30" rx="1" ry="1" stroke="black" fill="orange" />
<rect x="236" y="75" width="30" height="30" rx="1" ry="1" stroke="black" fill="orange" />
<rect x="236" y="115" width="30" height="30" rx="1" ry="1" stroke="black" fill="forestgreen" />
<rect x="236" y="155" width="30" height="30" rx="1" ry="1" stroke="black" fill="cyan" />
<rect x="236" y="195" width="30" height="30" rx="1" ry="1" stroke="black" fill="red" />
<rect x="236" y="235" width="30" height="30" rx="1" ry="1" stroke="black" fill="black" />
<rect x="236" y="275" width="30" height="30" rx="1" ry="1" stroke="black" fill="red" />
<rect x="236" y="315" width="30" height="30" rx="1" ry="1" stroke="black" fill="cyan" />
<rect x="236" y="355" width="30" height="30" rx="1" ry="1" stroke="black" fill="forestgreen" />
<rect x="236" y="395" width="30" height="30" rx="1" ry="1" stroke="black" fill="orange" />
<rect x="276" y="75" width="30" height="30" rx="1" ry="1" stroke="black" fill="orange" />
<rect x="276" y="115" width="30" height="30" rx="1" ry="1" stroke="black" fill="forestgreen" />
<rect x="276" y="155" width="30" height="30" rx="1" ry="1" stroke="black" fill="cyan" />
<rect x="276" y="195" width="30" height="30" rx="1" ry="1" stroke="black" fill="#6b00ff" />
<rect x="276" y="235" width="30" height="30" rx="1" ry="1" stroke="black" fill="red" />
<rect x="276" y="275" width="30" height="30" rx="1" ry="1" stroke="black" fill="#6b00ff" />
<rect x="276" y="315" width="30" height="30" rx="1" ry="1" stroke="black" fill="cyan" />
<rect x="276" y="355" width="30" height="30" rx="1" ry="1" stroke="black" fill="forestgreen" />
<rect x="276" y="395" width="30" height="30" rx="1" ry="1" stroke="black" fill="orange" />
<rect x="316" y="75" width="30" height="30" rx="1" ry="1" stroke="black" fill="orange" />
<rect x="316" y="115" width="30" height="30" rx="1" ry="1" stroke="black" fill="forestgreen" />
<rect x="316" y="155" width="30" height="30" rx="1" ry="1" stroke="black" fill="#6b00ff" />
<rect x="316" y="195" width="30" height="30" rx="1" ry="1" stroke="black" fill="cyan" />
<rect x="316" y="235" width="30" height="30" rx="1" ry="1" stroke="black" fill="cyan" />
<rect x="316" y="275" width="30" height="30" rx="1" ry="1" stroke="black" fill="cyan" />
<rect x="316" y="315" width="30" height="30" rx="1" ry="1" stroke="black" fill="#6b00ff" />
<rect x="316" y="355" width="30" height="30" rx="1" ry="1" stroke="black" fill="forestgreen" />
<rect x="316" y="395" width="30" height="30" rx="1" ry="1" stroke="black" fill="orange" />
<rect x="356" y="75" width="30" height="30" rx="1" ry="1" stroke="black" fill="orange" />
<rect x="356" y="115" width="30" height="30" rx="1" ry="1" stroke="black" fill="#6b00ff" />
<rect x="356" y="155" width="30" height="30" rx="1" ry="1" stroke="black" fill="forestgreen" />
<rect x="356" y="195" width="30" height="30" rx="1" ry="1" stroke="black" fill="forestgreen" />
<rect x="356" y="235" width="30" height="30" rx="1" ry="1" stroke="black" fill="forestgreen" />
<rect x="356" y="275" width="30" height="30" rx="1" ry="1" stroke="black" fill="forestgreen" />
<rect x="356" y="315" width="30" height="30" rx="1" ry="1" stroke="black" fill="forestgreen" />
<rect x="356" y="355" width="30" height="30" rx="1" ry="1" stroke="black" fill="#6b00ff" />
<rect x="356" y="395" width="30" height="30" rx="1" ry="1" stroke="black" fill="orange" />
<rect x="396" y="75" width="30" height="30" rx="1" ry="1" stroke="black" fill="#6b00ff" />
<rect x="396" y="115" width="30" height="30" rx="1" ry="1" stroke="black" fill="orange" />
<rect x="396" y="155" width="30" height="30" rx="1" ry="1" stroke="black" fill="orange" />
<rect x="396" y="195" width="30" height="30" rx="1" ry="1" stroke="black" fill="orange" />
<rect x="396" y="235" width="30" height="30" rx="1" ry="1" stroke="black" fill="orange" />
<rect x="396" y="275" width="30" height="30" rx="1" ry="1" stroke="black" fill="orange" />
<rect x="396" y="315" width="30" height="30" rx="1" ry="1" stroke="black" fill="orange" />
<rect x="396" y="355" width="30" height="30" rx="1" ry="1" stroke="black" fill="orange" />
<rect x="396" y="395" width="30" height="30" rx="1" ry="1" stroke="black" fill="#6b00ff" />
<text x="126" y="100" font-size="5">kṛttikā</text>
<text x="166" y="100" font-size="5">rohiṇī</text>
<text x="206" y="100" font-size="5">mṛgaśīrṣa</text>
<text x="246" y="100" font-size="5">ārdrā</text>
<text x="286" y="100" font-size="5">punarvasu</text>
<text x="326" y="100" font-size="5">puṣya</text>
<text x="366" y="100" font-size="5">āśleṣā</text>
<text x="406" y="140" font-size="5">maghā</text>
<text x="396" y="180" font-size="5">pūrvā phalgunī</text>
<text x="396" y="220" font-size="5">uttarā phalgunī</text>
<text x="406" y="260" font-size="5">hasta</text>
<text x="406" y="300" font-size="5">citrā</text>
<text x="406" y="340" font-size="5">svāti</text>
<text x="406" y="380" font-size="5">viśākhā</text>
<text x="366" y="420" font-size="5">anurādhā</text>
<text x="326" y="420" font-size="5">jyeṣṭhā</text>
<text x="286" y="420" font-size="5">mūla</text>
<text x="236" y="420" font-size="5">pūrvāṣāḍhā</text>
<text x="196" y="420" font-size="5">uttarāṣāḍhā</text>
<text x="166" y="420" font-size="5">abhijit</text>
<text x="126" y="420" font-size="5">śravaṇa</text>
<text x="86" y="380" font-size="5">dhaniṣṭhā</text>
<text x="86" y="340" font-size="5">śatabhiṣa</text>
<text x="76" y="300" font-size="5">pūrvabhādrapadā</text>
<text x="76" y="260" font-size="5">uttarabhādrapadā</text>
<text x="86" y="220" font-size="5">revatī</text>
<text x="86" y="180" font-size="5">aśvinī</text>
<text x="86" y="140" font-size="5">bharaṇī</text>
<text x="81" y="97" font-size="20">अ</text>
<text x="399" y="97" font-size="20">आ</text>
<text x="404" y="417" font-size="20">इ</text>
<text x="84" y="419" font-size="20">ई</text>
<text x="124" y="137" font-size="20">उ</text>
<text x="164" y="137" font-size="20">अ</text>
<text x="204" y="137" font-size="20">व</text>
<text x="244" y="137" font-size="20">क</text>
<text x="284" y="137" font-size="20">ह</text>
<text x="324" y="137" font-size="20">ड</text>
<text x="364" y="137" font-size="20">ऊ</text>
<text x="364" y="177" font-size="20">म</text>
<text x="364" y="217" font-size="20">ट</text>
<text x="364" y="257" font-size="20">प</text>
<text x="364" y="297" font-size="20">र</text>
<text x="364" y="337" font-size="20">त</text>
<text x="364" y="377" font-size="20">ऋ</text>
<text x="324" y="377" font-size="20">न</text>
<text x="284" y="377" font-size="20">य</text>
<text x="244" y="377" font-size="20">भ</text>
<text x="204" y="377" font-size="20">ज</text>
<text x="164" y="377" font-size="20">ख</text>
<text x="124" y="377" font-size="20">ॠ</text>
<text x="124" y="337" font-size="20">ग</text>
<text x="124" y="297" font-size="20">स</text>
<text x="124" y="257" font-size="20">द</text>
<text x="124" y="217" font-size="20">च</text>
<text x="124" y="177" font-size="20">ल</text>
<text x="163" y="177" font-size="20">ऌ</text>
<text x="323" y="177" font-size="20">ॡ</text>
<text x="324" y="336" font-size="20">ए</text>
<text x="164" y="338" font-size="20">ऐ</text>
<text x="201" y="217" font-size="20">ओ</text>
<text x="279" y="217" font-size="20">औ</text>
<text x="284" y="297" font-size="20">अं</text>
<text x="201" y="299" font-size="20">अः</text>
<text x="201" y="180" font-size="5">aryamā</text>
<text x="245" y="200" font-size="5">nanda</text>
<text x="243" y="215" font-size="5">ravivāra</text>
<text x="239" y="220" font-size="5">maṅgalavāra</text>
<text x="284" y="240" font-size="5">bhadra</text>
<text x="282" y="255" font-size="5">somavāra</text>
<text x="281" y="260" font-size="5">budhavāra</text>
<text x="247" y="280" font-size="5">jāya</text>
<text x="243" y="300" font-size="5">guruvāra</text>
<text x="207" y="240" font-size="5">ṛkta</text>
<text x="202" y="260" font-size="5">śukravāra</text>
<text x="245" y="240" font-size="5" fill="white">pūrṇa</text>
<text x="243" y="260" font-size="5" fill="white">śanivāra</text>
<text x="241" y="180" font-size="5">mitra</text>
<text x="245" y="200" font-size="5">nanda</text>
<text x="243" y="215" font-size="5">ravivāra</text>
<text x="239" y="220" font-size="5">maṅgalavāra</text>
<text x="284" y="240" font-size="5">bhadra</text>
<text x="282" y="255" font-size="5">somavāra</text>
<text x="281" y="260" font-size="5">budhavāra</text>
<text x="247" y="280" font-size="5">jāya</text>
<text x="243" y="300" font-size="5">guruvāra</text>
<text x="207" y="240" font-size="5">ṛkta</text>
<text x="202" y="260" font-size="5">śukravāra</text>
<text x="245" y="240" font-size="5" fill="white">pūrṇa</text>
<text x="243" y="260" font-size="5" fill="white">śanivāra</text>
<text x="281" y="180" font-size="5">varuṇa</text>
<text x="245" y="200" font-size="5">nanda</text>
<text x="243" y="215" font-size="5">ravivāra</text>
<text x="239" y="220" font-size="5">maṅgalavāra</text>
<text x="284" y="240" font-size="5">bhadra</text>
<text x="282" y="255" font-size="5">somavāra</text>
<text x="281" y="260" font-size="5">budhavāra</text>
<text x="247" y="280" font-size="5">jāya</text>
<text x="243" y="300" font-size="5">guruvāra</text>
<text x="207" y="240" font-size="5">ṛkta</text>
<text x="202" y="260" font-size="5">śukravāra</text>
<text x="245" y="240" font-size="5" fill="white">pūrṇa</text>
<text x="243" y="260" font-size="5" fill="white">śanivāra</text>
<text x="321" y="220" font-size="5">indra</text>
<text x="245" y="200" font-size="5">nanda</text>
<text x="243" y="215" font-size="5">ravivāra</text>
<text x="239" y="220" font-size="5">maṅgalavāra</text>
<text x="284" y="240" font-size="5">bhadra</text>
<text x="282" y="255" font-size="5">somavāra</text>
<text x="281" y="260" font-size="5">budhavāra</text>
<text x="247" y="280" font-size="5">jāya</text>
<text x="243" y="300" font-size="5">guruvāra</text>
<text x="207" y="240" font-size="5">ṛkta</text>
<text x="202" y="260" font-size="5">śukravāra</text>
<text x="245" y="240" font-size="5" fill="white">pūrṇa</text>
<text x="243" y="260" font-size="5" fill="white">śanivāra</text>
<text x="321" y="260" font-size="5">vivasvān</text>
<text x="245" y="200" font-size="5">nanda</text>
<text x="243" y="215" font-size="5">ravivāra</text>
<text x="239" y="220" font-size="5">maṅgalavāra</text>
<text x="284" y="240" font-size="5">bhadra</text>
<text x="282" y="255" font-size="5">somavāra</text>
<text x="281" y="260" font-size="5">budhavāra</text>
<text x="247" y="280" font-size="5">jāya</text>
<text x="243" y="300" font-size="5">guruvāra</text>
<text x="207" y="240" font-size="5">ṛkta</text>
<text x="202" y="260" font-size="5">śukravāra</text>
<text x="245" y="240" font-size="5" fill="white">pūrṇa</text>
<text x="243" y="260" font-size="5" fill="white">śanivāra</text>
<text x="321" y="300" font-size="5">tvaṣṭā</text>
<text x="245" y="200" font-size="5">nanda</text>
<text x="243" y="215" font-size="5">ravivāra</text>
<text x="239" y="220" font-size="5">maṅgalavāra</text>
<text x="284" y="240" font-size="5">bhadra</text>
<text x="282" y="255" font-size="5">somavāra</text>
<text x="281" y="260" font-size="5">budhavāra</text>
<text x="247" y="280" font-size="5">jāya</text>
<text x="243" y="300" font-size="5">guruvāra</text>
<text x="207" y="240" font-size="5">ṛkta</text>
<text x="202" y="260" font-size="5">śukravāra</text>
<text x="245" y="240" font-size="5" fill="white">pūrṇa</text>
<text x="243" y="260" font-size="5" fill="white">śanivāra</text>
<text x="281" y="340" font-size="5">viṣṇu</text>
<text x="245" y="200" font-size="5">nanda</text>
<text x="243" y="215" font-size="5">ravivāra</text>
<text x="239" y="220" font-size="5">maṅgalavāra</text>
<text x="284" y="240" font-size="5">bhadra</text>
<text x="282" y="255" font-size="5">somavāra</text>
<text x="281" y="260" font-size="5">budhavāra</text>
<text x="247" y="280" font-size="5">jāya</text>
<text x="243" y="300" font-size="5">guruvāra</text>
<text x="207" y="240" font-size="5">ṛkta</text>
<text x="202" y="260" font-size="5">śukravāra</text>
<text x="245" y="240" font-size="5" fill="white">pūrṇa</text>
<text x="243" y="260" font-size="5" fill="white">śanivāra</text>
<text x="241" y="340" font-size="5">aṃśu</text>
<text x="245" y="200" font-size="5">nanda</text>
<text x="243" y="215" font-size="5">ravivāra</text>
<text x="239" y="220" font-size="5">maṅgalavāra</text>
<text x="284" y="240" font-size="5">bhadra</text>
<text x="282" y="255" font-size="5">somavāra</text>
<text x="281" y="260" font-size="5">budhavāra</text>
<text x="247" y="280" font-size="5">jāya</text>
<text x="243" y="300" font-size="5">guruvāra</text>
<text x="207" y="240" font-size="5">ṛkta</text>
<text x="202" y="260" font-size="5">śukravāra</text>
<text x="245" y="240" font-size="5" fill="white">pūrṇa</text>
<text x="243" y="260" font-size="5" fill="white">śanivāra</text>
<text x="201" y="340" font-size="5">bhaga</text>
<text x="245" y="200" font-size="5">nanda</text>
<text x="243" y="215" font-size="5">ravivāra</text>
<text x="239" y="220" font-size="5">maṅgalavāra</text>
<text x="284" y="240" font-size="5">bhadra</text>
<text x="282" y="255" font-size="5">somavāra</text>
<text x="281" y="260" font-size="5">budhavāra</text>
<text x="247" y="280" font-size="5">jāya</text>
<text x="243" y="300" font-size="5">guruvāra</text>
<text x="207" y="240" font-size="5">ṛkta</text>
<text x="202" y="260" font-size="5">śukravāra</text>
<text x="245" y="240" font-size="5" fill="white">pūrṇa</text>
<text x="243" y="260" font-size="5" fill="white">śanivāra</text>
<text x="161" y="300" font-size="5">pūṣā</text>
<text x="245" y="200" font-size="5">nanda</text>
<text x="243" y="215" font-size="5">ravivāra</text>
<text x="239" y="220" font-size="5">maṅgalavāra</text>
<text x="284" y="240" font-size="5">bhadra</text>
<text x="282" y="255" font-size="5">somavāra</text>
<text x="281" y="260" font-size="5">budhavāra</text>
<text x="247" y="280" font-size="5">jāya</text>
<text x="243" y="300" font-size="5">guruvāra</text>
<text x="207" y="240" font-size="5">ṛkta</text>
<text x="202" y="260" font-size="5">śukravāra</text>
<text x="245" y="240" font-size="5" fill="white">pūrṇa</text>
<text x="243" y="260" font-size="5" fill="white">śanivāra</text>
<text x="161" y="260" font-size="5">parjanya</text>
<text x="245" y="200" font-size="5">nanda</text>
<text x="243" y="215" font-size="5">ravivāra</text>
<text x="239" y="220" font-size="5">maṅgalavāra</text>
<text x="284" y="240" font-size="5">bhadra</text>
<text x="282" y="255" font-size="5">somavāra</text>
<text x="281" y="260" font-size="5">budhavāra</text>
<text x="247" y="280" font-size="5">jāya</text>
<text x="243" y="300" font-size="5">guruvāra</text>
<text x="207" y="240" font-size="5">ṛkta</text>
<text x="202" y="260" font-size="5">śukravāra</text>
<text x="245" y="240" font-size="5" fill="white">pūrṇa</text>
<text x="243" y="260" font-size="5" fill="white">śanivāra</text>
<text x="161" y="220" font-size="5">dhātā</text>
<text x="245" y="200" font-size="5">nanda</text>
<text x="243" y="215" font-size="5">ravivāra</text>
<text x="239" y="220" font-size="5">maṅgalavāra</text>
<text x="284" y="240" font-size="5">bhadra</text>
<text x="282" y="255" font-size="5">somavāra</text>
<text x="281" y="260" font-size="5">budhavāra</text>
<text x="247" y="280" font-size="5">jāya</text>
<text x="243" y="300" font-size="5">guruvāra</text>
<text x="207" y="240" font-size="5">ṛkta</text>
<text x="202" y="260" font-size="5">śukravāra</text>
<text x="245" y="240" font-size="5" fill="white">pūrṇa</text>
<text x="243" y="260" font-size="5" fill="white">śanivāra</text>
</svg>